<?xml version="1.0" encoding="UTF-8" standalone="no"?>
<!-- Created with Inkscape (http://www.inkscape.org/) -->

<svg
   xmlns:dc="http://purl.org/dc/elements/1.1/"
   xmlns:cc="http://creativecommons.org/ns#"
   xmlns:rdf="http://www.w3.org/1999/02/22-rdf-syntax-ns#"
   xmlns:svg="http://www.w3.org/2000/svg"
   xmlns="http://www.w3.org/2000/svg"
   xmlns:xlink="http://www.w3.org/1999/xlink"
   xmlns:sodipodi="http://sodipodi.sourceforge.net/DTD/sodipodi-0.dtd"
   xmlns:inkscape="http://www.inkscape.org/namespaces/inkscape"
   width="520.07501"
   height="520.03204"
   viewBox="0 0 5.7786112 5.7781337"
   id="svg4152"
   version="1.1"
   inkscape:version="0.92.4 (unknown)"
   sodipodi:docname="flower_head_wilted.svg">
  <defs
     id="defs4154">
    <inkscape:path-effect
       effect="spiro"
       id="path-effect11572"
       is_visible="true" />
    <linearGradient
       id="linearGradient6546">
      <stop
         style="stop-color:#74ff78;stop-opacity:1"
         offset="0"
         id="stop11541" />
      <stop
         style="stop-color:#409e00;stop-opacity:1"
         offset="1"
         id="stop11543" />
    </linearGradient>
    <inkscape:path-effect
       effect="spiro"
       id="path-effect11512"
       is_visible="true" />
    <linearGradient
       id="linearGradient8243">
      <stop
         style="stop-color:#fff309;stop-opacity:1"
         offset="0"
         id="stop8245" />
      <stop
         style="stop-color:#5fd500;stop-opacity:1"
         offset="1"
         id="stop8247" />
    </linearGradient>
    <linearGradient
       id="linearGradient6669">
      <stop
         style="stop-color:#fffd14;stop-opacity:1"
         offset="0"
         id="stop6671" />
      <stop
         style="stop-color:#ffc62a;stop-opacity:1"
         offset="1"
         id="stop6673" />
    </linearGradient>
    <inkscape:path-effect
       effect="spiro"
       id="path-effect6650"
       is_visible="true" />
    <linearGradient
       id="linearGradient11545">
      <stop
         id="stop6558"
         offset="0"
         style="stop-color:#53ff58;stop-opacity:1" />
      <stop
         id="stop6560"
         offset="1"
         style="stop-color:#198800;stop-opacity:1" />
    </linearGradient>
    <linearGradient
       id="linearGradient6562">
      <stop
         style="stop-color:#a700e0;stop-opacity:1"
         offset="0"
         id="stop6548" />
      <stop
         id="stop11347"
         offset="0.51764709"
         style="stop-color:#ff062c;stop-opacity:1" />
      <stop
         style="stop-color:#ffdf14;stop-opacity:1"
         offset="1"
         id="stop6550" />
    </linearGradient>
    <inkscape:path-effect
       effect="spiro"
       id="path-effect6543"
       is_visible="true" />
    <radialGradient
       inkscape:collect="always"
       xlink:href="#linearGradient6562"
       id="radialGradient11337"
       cx="4.3222218"
       cy="4.4111109"
       fx="4.3222218"
       fy="4.4111109"
       r="1.2888888"
       gradientUnits="userSpaceOnUse"
       gradientTransform="matrix(0.80131268,-0.00888077,0.00924141,0.81236405,0.72083074,-0.58366245)" />
    <inkscape:path-effect
       is_visible="true"
       id="path-effect4142"
       effect="spiro" />
    <inkscape:path-effect
       is_visible="true"
       id="path-effect4135"
       effect="spiro" />
    <radialGradient
       inkscape:collect="always"
       xlink:href="#linearGradient6669"
       id="radialGradient938"
       gradientUnits="userSpaceOnUse"
       gradientTransform="matrix(-0.42710558,-0.40184676,2.0513548,-2.1241168,-1.5712982,11.837752)"
       cx="4.0952201"
       cy="3.3853562"
       fx="4.0952201"
       fy="3.3853562"
       r="1.0236894" />
    <linearGradient
       inkscape:collect="always"
       xlink:href="#linearGradient8243"
       id="linearGradient940"
       gradientUnits="userSpaceOnUse"
       gradientTransform="matrix(-0.57686048,-0.56938001,0.57686047,-0.56938001,3.7503913,7.5506024)"
       x1="4.0585122"
       y1="1.7855794"
       x2="4.1044383"
       y2="3.8856435" />
    <radialGradient
       inkscape:collect="always"
       xlink:href="#linearGradient6669"
       id="radialGradient950"
       gradientUnits="userSpaceOnUse"
       gradientTransform="matrix(-0.44263627,0.38467275,-1.9077879,-2.2539463,12.779175,7.8075456)"
       cx="4.0952201"
       cy="3.3853562"
       fx="4.0952201"
       fy="3.3853562"
       r="1.0236894" />
    <linearGradient
       inkscape:collect="always"
       xlink:href="#linearGradient8243"
       id="linearGradient952"
       gradientUnits="userSpaceOnUse"
       gradientTransform="matrix(-0.62433729,0.51687964,-0.50868699,-0.63103023,9.0470702,2.0829117)"
       x1="4.0585122"
       y1="1.7855794"
       x2="4.1044383"
       y2="3.8856435" />
    <radialGradient
       inkscape:collect="always"
       xlink:href="#linearGradient6669"
       id="radialGradient956"
       gradientUnits="userSpaceOnUse"
       gradientTransform="matrix(-0.40712619,0.42156707,-2.1520233,-2.0247537,13.098531,8.377545)"
       cx="4.0952201"
       cy="3.3853562"
       fx="4.0952201"
       fy="3.3853562"
       r="1.0236894" />
    <linearGradient
       inkscape:collect="always"
       xlink:href="#linearGradient8243"
       id="linearGradient958"
       gradientUnits="userSpaceOnUse"
       gradientTransform="matrix(-0.57686048,0.56938001,-0.57686047,-0.56938001,8.7550567,3.1248648)"
       x1="4.0585122"
       y1="1.7855794"
       x2="4.1044383"
       y2="3.8856435" />
    <radialGradient
       inkscape:collect="always"
       xlink:href="#linearGradient6669"
       id="radialGradient974"
       gradientUnits="userSpaceOnUse"
       gradientTransform="matrix(-0.42425241,-0.39901713,2.0382323,-2.1644258,-1.4594217,10.882013)"
       cx="4.0952201"
       cy="3.3853562"
       fx="4.0952201"
       fy="3.3853562"
       r="1.0236894" />
    <linearGradient
       inkscape:collect="always"
       xlink:href="#linearGradient8243"
       id="linearGradient976"
       gradientUnits="userSpaceOnUse"
       gradientTransform="matrix(-0.57300309,-0.56573376,0.5731663,-0.58053112,3.8280497,6.4983547)"
       x1="4.0585122"
       y1="1.7855794"
       x2="4.1044383"
       y2="3.8856435" />
    <radialGradient
       inkscape:collect="always"
       xlink:href="#linearGradient6669"
       id="radialGradient980"
       gradientUnits="userSpaceOnUse"
       gradientTransform="matrix(-0.58239095,-0.00505541,0.02766424,-2.9729387,6.4451945,11.806212)"
       cx="4.0952201"
       cy="3.3853562"
       fx="4.0952201"
       fy="3.3853562"
       r="1.0236894" />
    <linearGradient
       inkscape:collect="always"
       xlink:href="#linearGradient8243"
       id="linearGradient982"
       gradientUnits="userSpaceOnUse"
       gradientTransform="matrix(-0.80478815,-0.02651895,0.02686736,-0.81536135,7.3526355,4.9981011)"
       x1="4.0585122"
       y1="1.7855794"
       x2="4.1044383"
       y2="3.8856435" />
    <radialGradient
       inkscape:collect="always"
       xlink:href="#linearGradient6669"
       id="radialGradient1007"
       gradientUnits="userSpaceOnUse"
       gradientTransform="matrix(-0.58989094,0.01394436,-0.07118338,-2.9336945,6.3839843,13.001988)"
       cx="4.0952201"
       cy="3.3853562"
       fx="4.0952201"
       fy="3.3853562"
       r="1.0236894" />
    <linearGradient
       inkscape:collect="always"
       xlink:href="#linearGradient8243"
       id="linearGradient1009"
       gradientUnits="userSpaceOnUse"
       gradientTransform="matrix(-0.81580391,0,0,-0.80522493,7.0756868,6.2563093)"
       x1="4.0585122"
       y1="1.7855794"
       x2="4.1044383"
       y2="3.8856435" />
  </defs>
  <sodipodi:namedview
     inkscape:document-units="px"
     pagecolor="#ffffff"
     bordercolor="#666666"
     borderopacity="1.0"
     inkscape:pageopacity="0.0"
     inkscape:pageshadow="2"
     inkscape:zoom="0.67521728"
     inkscape:cx="187.04898"
     inkscape:cy="608.42073"
     inkscape:current-layer="layer1"
     id="namedview4156"
     showgrid="false"
     inkscape:window-width="1855"
     inkscape:window-height="1056"
     inkscape:window-x="65"
     inkscape:window-y="24"
     inkscape:window-maximized="1"
     units="px"
     borderlayer="true"
     fit-margin-top="10"
     fit-margin-left="10"
     fit-margin-right="10"
     fit-margin-bottom="10" />
  <metadata
     id="metadata4158">
    <rdf:RDF>
      <cc:Work
         rdf:about="">
        <dc:format>image/svg+xml</dc:format>
        <dc:type
           rdf:resource="http://purl.org/dc/dcmitype/StillImage" />
        <dc:title></dc:title>
        <cc:license
           rdf:resource="http://creativecommons.org/publicdomain/zero/1.0/" />
        <dc:publisher>
          <cc:Agent>
            <dc:title>Sonshine Design</dc:title>
          </cc:Agent>
        </dc:publisher>
        <dc:creator>
          <cc:Agent>
            <dc:title>Sonshine Penguin</dc:title>
          </cc:Agent>
        </dc:creator>
      </cc:Work>
      <cc:License
         rdf:about="http://creativecommons.org/publicdomain/zero/1.0/">
        <cc:permits
           rdf:resource="http://creativecommons.org/ns#Reproduction" />
        <cc:permits
           rdf:resource="http://creativecommons.org/ns#Distribution" />
        <cc:permits
           rdf:resource="http://creativecommons.org/ns#DerivativeWorks" />
      </cc:License>
    </rdf:RDF>
  </metadata>
  <g
     inkscape:label="Layer 1"
     inkscape:groupmode="layer"
     id="layer1"
     transform="translate(-1.3686524,-0.07231396)">
    <g
       id="g902">
      <ellipse
         ry="1.0378454"
         rx="1.0514805"
         cy="2.961381"
         cx="4.2250466"
         id="path11329"
         style="color:#000000;fill:url(#radialGradient11337);stroke-width:0.10806628;stroke-linecap:round;stroke-linejoin:round" />
      <path
         transform="matrix(1.6278551,0,0,1.6597606,-2.8537973,-3.9507648)"
         d="m 4.3555551,4.1777773 c 0.0072,0.00344 -0.00108,0.011407 -0.00572,0.011973 -0.012558,0.00153 -0.019705,-0.012719 -0.018229,-0.023405 0.00264,-0.019115 0.023669,-0.028682 0.041094,-0.024486 0.025572,0.00616 0.037854,0.034741 0.030743,0.058783 -0.00948,0.032044 -0.045854,0.047104 -0.076472,0.036999 -0.038529,-0.012716 -0.056395,-0.056985 -0.043256,-0.094161 0.015913,-0.045025 0.068126,-0.065708 0.1118498,-0.049513 0.051526,0.019085 0.075035,0.079274 0.055769,0.1295388 -0.022243,0.058033 -0.090426,0.084372 -0.1472278,0.062026 C 4.2395676,4.2601412 4.2103937,4.1839521 4.2358271,4.1206158 4.2643595,4.049562 4.3485644,4.0175511 4.4184327,4.0460765 4.4959998,4.077745 4.5308496,4.1699723 4.4992287,4.2463711 4.4644278,4.3304529 4.3641731,4.3681431 4.2812451,4.3334237 4.1906475,4.2954933 4.1501159,4.1872073 4.1879358,4.0977512 4.2289935,4.000637 4.3453138,3.9572629 4.4412973,3.9981853 4.5449288,4.0423683 4.591146,4.1667255 4.5471199,4.2692357 4.4998128,4.379385 4.3674169,4.4284461 4.2583805,4.3813149 4.1417128,4.3308851 4.0898075,4.1904487 4.1400446,4.0748866 4.1935962,3.9517002 4.3420745,3.8969502 4.4641619,3.9502941 4.5938673,4.0069665 4.6514625,4.1634879 4.5950111,4.2921003 4.5352184,4.428325 4.370653,4.4887656 4.2355159,4.4292061 4.0927716,4.3662939 4.0294853,4.1936836 4.0921534,4.052022 4.1581847,3.902758 4.3388407,3.8366257 4.4870265,3.9024029 4.6428105,3.9715527 4.7117889,4.160255 4.6429023,4.3149649 4.5706342,4.477269 4.3738851,4.5490938 4.2126513,4.4770973 4.0438269,4.4017114 3.9691557,4.1969149 4.0442622,4.0291574 4.1227657,3.8538126 4.3356099,3.7762947 4.5098911,3.8545117 4.6917564,3.9361323 4.7721211,4.1570248 4.6907935,4.3378295 4.6060558,4.5262154 4.3771148,4.6094269 4.1897867,4.5249885 3.9948801,4.4371341 3.9088216,4.2001442 3.996371,4.0062928 4.087342,3.8048654 4.3323811,3.7159598 4.5327557,3.8066205 c 0.2079482,0.094087 0.299701,0.3471758 0.205929,0.5540736"
         sodipodi:t0="0"
         sodipodi:argument="-12.120943"
         sodipodi:radius="0.42455491"
         sodipodi:revolution="8"
         sodipodi:expansion="1"
         sodipodi:cy="4.1777773"
         sodipodi:cx="4.3555551"
         id="path11365"
         style="fill:none;fill-rule:evenodd;stroke:#000000;stroke-width:0.0135194"
         sodipodi:type="spiral" />
    </g>
    <path
       inkscape:connector-curvature="0"
       id="use6655"
       style="fill:url(#radialGradient1007);fill-rule:evenodd;stroke:url(#linearGradient1009);stroke-width:0.11444445"
       d="M 3.8114007,5.3299985 C 5.3699831,5.6642719 4.2410014,4.2879695 4.2225307,3.9519177 3.8577094,2.9858516 3.5307901,3.1015131 3.2410083,3.9900627 3.0172886,4.454565 2.5390994,5.920017 3.8114007,5.3299985 Z" />
    <path
       inkscape:connector-curvature="0"
       id="use6661"
       style="fill:url(#radialGradient956);fill-rule:evenodd;stroke:url(#linearGradient958);stroke-width:0.11444445"
       d="M 5.7832519,4.7481313 C 7.1248084,3.8967054 5.3405193,3.7114712 5.0867122,3.4867381 4.136658,3.0582486 3.9883506,3.3682028 4.419998,4.1987518 4.5945722,4.6833468 5.3062863,6.053324 5.7832519,4.7481313 Z" />
    <path
       inkscape:connector-curvature="0"
       id="use6667"
       style="fill:url(#radialGradient938);fill-rule:evenodd;stroke:url(#linearGradient940);stroke-width:0.11444445"
       d="M 2.1057985,4.6173346 C 2.9684103,5.9414944 3.1560782,4.1803432 3.3837638,3.9298273 3.8178828,2.992093 3.5038564,2.8457088 2.6623957,3.2717587 2.1714341,3.4440691 0.78345828,4.1465541 2.1057985,4.6173346 Z" />
    <path
       d="M 4.1633346,3.9540195 C 5.6897175,4.3431646 4.6219025,2.9128374 4.6148942,2.5719551 4.287233,1.5818687 3.960869,1.6883592 3.6453525,2.5786743 3.4091546,3.0417513 2.8885261,4.5101069 4.1633346,3.9540195 Z"
       style="fill:url(#radialGradient980);fill-rule:evenodd;stroke:url(#linearGradient982);stroke-width:0.11444445"
       id="use6659"
       inkscape:connector-curvature="0" />
    <path
       inkscape:connector-curvature="0"
       id="use6663"
       style="fill:url(#radialGradient950);fill-rule:evenodd;stroke:url(#linearGradient952);stroke-width:0.11444445"
       d="M 5.963721,3.4251869 C 7.3676804,2.6996552 5.6342119,2.3363928 5.4077812,2.0847419 4.5182867,1.55881 4.3411615,1.856581 4.6807165,2.7365111 4.8029445,3.2422724 5.3627588,4.6936751 5.963721,3.4251869 Z" />
    <path
       d="M 2.1946418,3.5668487 C 3.0514177,4.8886716 3.2381096,3.1135067 3.4643408,2.8584196 3.8957527,1.9089373 3.5838028,1.7656161 2.7477887,2.2052662 2.2600159,2.3850092 0.8810243,3.1099256 2.1946418,3.5668487 Z"
       style="fill:url(#radialGradient974);fill-rule:evenodd;stroke:url(#linearGradient976);stroke-width:0.11444445"
       id="use970"
       inkscape:connector-curvature="0" />
  </g>
</svg>
