<?xml version="1.0" encoding="UTF-8" standalone="no"?>
<!-- Generator: Adobe Illustrator 14.0.0, SVG Export Plug-In . SVG Version: 6.00 Build 43363)  -->

<svg
   xmlns:dc="http://purl.org/dc/elements/1.1/"
   xmlns:cc="http://creativecommons.org/ns#"
   xmlns:rdf="http://www.w3.org/1999/02/22-rdf-syntax-ns#"
   xmlns:svg="http://www.w3.org/2000/svg"
   xmlns="http://www.w3.org/2000/svg"
   xmlns:xlink="http://www.w3.org/1999/xlink"
   xmlns:sodipodi="http://sodipodi.sourceforge.net/DTD/sodipodi-0.dtd"
   xmlns:inkscape="http://www.inkscape.org/namespaces/inkscape"
   version="1.1"
   id="Layer_4"
   x="0px"
   y="0px"
   viewBox="0 0 80.8403 79.864623"
   enable-background="new 0 0 612 792"
   xml:space="preserve"
   sodipodi:version="0.32"
   inkscape:version="0.92.4 (unknown)"
   sodipodi:docname="pot.svg"
   inkscape:output_extension="org.inkscape.output.svg.inkscape"
   width="80.840302"
   height="79.864624">
  <metadata
   id="metadata28732">
    <rdf:RDF>
      <cc:Work
   rdf:about="">
        <dc:format>image/svg+xml</dc:format>
        <dc:type
   rdf:resource="http://purl.org/dc/dcmitype/StillImage" />
        <dc:title></dc:title>
      </cc:Work>
    </rdf:RDF>
  </metadata>
  <defs
   id="defs28730">
    
    
    
    
    
    
    
    
    
    
    
    
    
    
    <linearGradient
   id="linearGradient4051">
      <stop
   style="stop-color: rgb(255, 205, 0); stop-opacity: 1;"
   offset="0"
   id="stop4053" />
      <stop
   style="stop-color: rgb(255, 151, 0); stop-opacity: 0;"
   offset="1"
   id="stop4055" />
    </linearGradient>
    
    
    
    
    
    
    
    
    
    
    <linearGradient
   inkscape:collect="always"
   id="linearGradient3852">
      <stop
   style="stop-color: rgb(255, 255, 255); stop-opacity: 1;"
   offset="0"
   id="stop3854" />
      <stop
   style="stop-color: rgb(255, 255, 255); stop-opacity: 0;"
   offset="1"
   id="stop3856" />
    </linearGradient>
    <linearGradient
   inkscape:collect="always"
   id="linearGradient3842">
      <stop
   style="stop-color: rgb(255, 255, 255); stop-opacity: 1;"
   offset="0"
   id="stop3844" />
      <stop
   style="stop-color: rgb(255, 255, 255); stop-opacity: 0;"
   offset="1"
   id="stop3846" />
    </linearGradient>
    <linearGradient
   inkscape:collect="always"
   id="linearGradient3832">
      <stop
   style="stop-color: rgb(255, 255, 255); stop-opacity: 1;"
   offset="0"
   id="stop3834" />
      <stop
   style="stop-color: rgb(255, 255, 255); stop-opacity: 0;"
   offset="1"
   id="stop3836" />
    </linearGradient>
    <linearGradient
   inkscape:collect="always"
   id="linearGradient3864">
      <stop
   style="stop-color: rgb(255, 255, 255); stop-opacity: 1;"
   offset="0"
   id="stop3866" />
      <stop
   style="stop-color: rgb(255, 255, 255); stop-opacity: 0;"
   offset="1"
   id="stop3868" />
    </linearGradient>
    <defs
   id="defs27785">
      <rect
   height="673.177"
   width="612"
   y="62.925999"
   id="SVGID_1_"
   x="0" />
    </defs>
    <clipPath
   id="SVGID_2_">
      <use
   id="use27789"
   overflow="visible"
   xlink:href="#SVGID_1_"
   style="overflow:visible"
   x="0"
   y="0"
   width="612"
   height="792" />
    </clipPath>
    <linearGradient
   y2="439.93951"
   x2="319.2373"
   y1="430.93951"
   x1="319.2373"
   gradientUnits="userSpaceOnUse"
   id="SVGID_65_">
      <stop
   id="stop28594"
   style="stop-color: rgb(255, 255, 255);"
   offset="0" />
      <stop
   id="stop28596"
   style="stop-color: rgb(250, 250, 250);"
   offset="0.1091" />
      <stop
   id="stop28598"
   style="stop-color: rgb(237, 237, 237);"
   offset="0.2329" />
      <stop
   id="stop28600"
   style="stop-color: rgb(214, 214, 214);"
   offset="0.364" />
      <stop
   id="stop28602"
   style="stop-color: rgb(182, 182, 182);"
   offset="0.5001" />
      <stop
   id="stop28604"
   style="stop-color: rgb(141, 141, 141);"
   offset="0.6403" />
      <stop
   id="stop28606"
   style="stop-color: rgb(91, 91, 91);"
   offset="0.7837" />
      <stop
   id="stop28608"
   style="stop-color: rgb(33, 33, 33);"
   offset="0.9271" />
      <stop
   id="stop28610"
   style="stop-color: rgb(0, 0, 0);"
   offset="1" />
    </linearGradient>
    <linearGradient
   y2="287.36429"
   x2="298.26321"
   y1="281.53961"
   x1="298.26321"
   gradientUnits="userSpaceOnUse"
   id="SVGID_66_">
      <stop
   id="stop28617"
   style="stop-color: rgb(255, 255, 255);"
   offset="0" />
      <stop
   id="stop28619"
   style="stop-color: rgb(250, 248, 245);"
   offset="0.1435" />
      <stop
   id="stop28621"
   style="stop-color: rgb(239, 233, 227);"
   offset="0.284" />
      <stop
   id="stop28623"
   style="stop-color: rgb(225, 213, 203);"
   offset="0.4233" />
      <stop
   id="stop28625"
   style="stop-color: rgb(209, 189, 173);"
   offset="0.562" />
      <stop
   id="stop28627"
   style="stop-color: rgb(189, 161, 138);"
   offset="0.7002" />
      <stop
   id="stop28629"
   style="stop-color: rgb(167, 130, 102);"
   offset="0.8381" />
      <stop
   id="stop28631"
   style="stop-color: rgb(143, 99, 67);"
   offset="0.9734" />
      <stop
   id="stop28633"
   style="stop-color: rgb(139, 94, 60);"
   offset="1" />
    </linearGradient>
    <linearGradient
   gradientTransform="matrix(-1,0,0,1,604.258,0)"
   y2="287.23141"
   x2="270.10989"
   y1="281.40671"
   x1="270.10989"
   gradientUnits="userSpaceOnUse"
   id="SVGID_67_">
      <stop
   id="stop28638"
   style="stop-color: rgb(255, 255, 255);"
   offset="0" />
      <stop
   id="stop28640"
   style="stop-color: rgb(250, 248, 245);"
   offset="0.1435" />
      <stop
   id="stop28642"
   style="stop-color: rgb(239, 233, 227);"
   offset="0.284" />
      <stop
   id="stop28644"
   style="stop-color: rgb(225, 213, 203);"
   offset="0.4233" />
      <stop
   id="stop28646"
   style="stop-color: rgb(209, 189, 173);"
   offset="0.562" />
      <stop
   id="stop28648"
   style="stop-color: rgb(189, 161, 138);"
   offset="0.7002" />
      <stop
   id="stop28650"
   style="stop-color: rgb(167, 130, 102);"
   offset="0.8381" />
      <stop
   id="stop28652"
   style="stop-color: rgb(143, 99, 67);"
   offset="0.9734" />
      <stop
   id="stop28654"
   style="stop-color: rgb(139, 94, 60);"
   offset="1" />
    </linearGradient>
    <linearGradient
   inkscape:collect="always"
   xlink:href="#SVGID_65_"
   id="linearGradient3508"
   x1="122.88672"
   y1="317.22699"
   x2="92.223106"
   y2="317.22699"
   gradientUnits="userSpaceOnUse" />
    <linearGradient
   inkscape:collect="always"
   xlink:href="#SVGID_65_"
   id="linearGradient3520"
   gradientUnits="userSpaceOnUse"
   x1="319.2373"
   y1="430.93951"
   x2="319.2373"
   y2="439.93951" />
    <linearGradient
   inkscape:collect="always"
   xlink:href="#SVGID_65_"
   id="linearGradient3793"
   gradientUnits="userSpaceOnUse"
   x1="122.88672"
   y1="317.22699"
   x2="92.223106"
   y2="317.22699" />
    <linearGradient
   inkscape:collect="always"
   xlink:href="#SVGID_65_"
   id="linearGradient3795"
   gradientUnits="userSpaceOnUse"
   x1="319.2373"
   y1="430.93951"
   x2="319.2373"
   y2="439.93951" />
    <linearGradient
   inkscape:collect="always"
   xlink:href="#SVGID_66_"
   id="linearGradient3797"
   gradientUnits="userSpaceOnUse"
   x1="298.26321"
   y1="281.53961"
   x2="298.26321"
   y2="287.36429" />
    <linearGradient
   inkscape:collect="always"
   xlink:href="#SVGID_67_"
   id="linearGradient3799"
   gradientUnits="userSpaceOnUse"
   gradientTransform="matrix(-1,0,0,1,604.258,0)"
   x1="270.10989"
   y1="281.40671"
   x2="270.10989"
   y2="287.23141" />
    <linearGradient
   inkscape:collect="always"
   xlink:href="#SVGID_65_"
   id="linearGradient4114"
   gradientUnits="userSpaceOnUse"
   x1="122.88672"
   y1="317.22699"
   x2="92.223106"
   y2="317.22699" />
    <linearGradient
   inkscape:collect="always"
   xlink:href="#SVGID_65_"
   id="linearGradient4116"
   gradientUnits="userSpaceOnUse"
   x1="319.2373"
   y1="430.93951"
   x2="319.2373"
   y2="439.93951" />
    <linearGradient
   inkscape:collect="always"
   xlink:href="#SVGID_66_"
   id="linearGradient4118"
   gradientUnits="userSpaceOnUse"
   x1="298.26321"
   y1="281.53961"
   x2="298.26321"
   y2="287.36429" />
    <linearGradient
   inkscape:collect="always"
   xlink:href="#SVGID_67_"
   id="linearGradient4120"
   gradientUnits="userSpaceOnUse"
   gradientTransform="matrix(-1,0,0,1,604.258,0)"
   x1="270.10989"
   y1="281.40671"
   x2="270.10989"
   y2="287.23141" />
    <linearGradient
   inkscape:collect="always"
   xlink:href="#SVGID_67_"
   id="linearGradient4721"
   gradientUnits="userSpaceOnUse"
   gradientTransform="matrix(-1,0,0,1,604.258,0)"
   x1="270.10989"
   y1="281.40671"
   x2="270.10989"
   y2="287.23141" />
    <linearGradient
   inkscape:collect="always"
   xlink:href="#SVGID_66_"
   id="linearGradient4723"
   gradientUnits="userSpaceOnUse"
   x1="298.26321"
   y1="281.53961"
   x2="298.26321"
   y2="287.36429" />
    <linearGradient
   inkscape:collect="always"
   xlink:href="#SVGID_66_"
   id="linearGradient6773"
   gradientUnits="userSpaceOnUse"
   x1="298.26321"
   y1="281.53961"
   x2="298.26321"
   y2="287.36429" />
    <linearGradient
   inkscape:collect="always"
   xlink:href="#SVGID_67_"
   id="linearGradient6775"
   gradientUnits="userSpaceOnUse"
   gradientTransform="matrix(-1,0,0,1,604.258,0)"
   x1="270.10989"
   y1="281.40671"
   x2="270.10989"
   y2="287.23141" />
    
    
    
    <linearGradient
   inkscape:collect="always"
   xlink:href="#linearGradient3864"
   id="linearGradient7145"
   gradientUnits="userSpaceOnUse"
   x1="-86.228584"
   y1="-1209.2754"
   x2="399.21429"
   y2="-1012.9467"
   gradientTransform="matrix(0.12738782,0,0,0.09320844,224.82474,336.37352)" />
    <radialGradient
   inkscape:collect="always"
   xlink:href="#linearGradient3832"
   id="radialGradient7147"
   gradientUnits="userSpaceOnUse"
   gradientTransform="matrix(0.26251917,0,0,0.0673388,359.1789,250.59269)"
   cx="-397.86789"
   cy="-1130.6097"
   fx="-397.86789"
   fy="-1130.6097"
   r="250" />
    <linearGradient
   inkscape:collect="always"
   xlink:href="#linearGradient3842"
   id="linearGradient7149"
   gradientUnits="userSpaceOnUse"
   x1="547.96143"
   y1="-917.93427"
   x2="-37.733616"
   y2="-1186.4723"
   gradientTransform="matrix(0.16641946,0,0,0.12176707,215.66166,306.03391)" />
    <linearGradient
   inkscape:collect="always"
   xlink:href="#linearGradient3852"
   id="linearGradient7151"
   gradientUnits="userSpaceOnUse"
   gradientTransform="matrix(0.1616806,0,0,0.1289067,319.05847,320.20205)"
   x1="-799.13586"
   y1="-1167.1196"
   x2="-285.17264"
   y2="-685.38934" />
    <radialGradient
   inkscape:collect="always"
   xlink:href="#linearGradient4051"
   id="radialGradient7153"
   gradientUnits="userSpaceOnUse"
   cx="0"
   cy="-1683.3162"
   fx="0"
   fy="-1683.3162"
   r="63.497372" />
    
    <radialGradient
   inkscape:collect="always"
   xlink:href="#linearGradient4051"
   id="radialGradient7157"
   gradientUnits="userSpaceOnUse"
   cx="0"
   cy="-1683.3162"
   fx="0"
   fy="-1683.3162"
   r="63.497372" />
    
    <radialGradient
   inkscape:collect="always"
   xlink:href="#linearGradient4051"
   id="radialGradient7161"
   gradientUnits="userSpaceOnUse"
   cx="0"
   cy="-1683.3162"
   fx="0"
   fy="-1683.3162"
   r="63.497372" />
    
    
    
    
    
    
    
    
    
    
    
    
    
    
    
    
  
        
        
        
        
        
        
        
        
        
        
        
        
        
      
          
          
          
          
          
          
          
          
          
        </defs>
  <sodipodi:namedview
   inkscape:window-height="1056"
   inkscape:window-width="1855"
   inkscape:pageshadow="2"
   inkscape:pageopacity="0.0"
   guidetolerance="10.0"
   gridtolerance="10.0"
   objecttolerance="10.0"
   borderopacity="1.0"
   bordercolor="#666666"
   pagecolor="#ffffff"
   id="base"
   showgrid="false"
   inkscape:zoom="4.6974482"
   inkscape:cx="91.52136"
   inkscape:cy="76.50375"
   inkscape:window-x="65"
   inkscape:window-y="24"
   inkscape:current-layer="g6909"
   inkscape:window-maximized="1"
   fit-margin-top="0"
   fit-margin-left="0"
   fit-margin-right="0"
   fit-margin-bottom="0" />
  <filter
   id="AI_GaussianBlur_4"
   style="color-interpolation-filters:sRGB">
    <feGaussianBlur
   stdDeviation="4"
   id="feGaussianBlur27647" />
  </filter>
  <pattern
   y="792"
   width="50.759"
   height="58.858"
   patternUnits="userSpaceOnUse"
   id="Water_Lilies_Color"
   viewBox="3.321 -61.255 50.759 58.858"
   overflow="visible">
    <g
   id="g27650">
      <polygon
   fill="none"
   points="3.321,-2.396 3.321,-61.255 54.08,-61.255 54.08,-2.396"
   id="polygon27652" />
      <polygon
   fill="#36C4F2"
   points="54.08,-2.396 54.08,-61.255 3.321,-61.255 3.321,-2.396"
   id="polygon27654" />
      <path
   fill="#C2E0AE"
   d="M19.703-33.381c0,1.176-1.75,1.176-1.75,0S19.703-34.557,19.703-33.381z"
   id="path27656" />
      <path
   fill="#C2E0AE"
   d="M40.967-33.06c0,1.175-1.75,1.175-1.75,0C39.217-34.237,40.967-34.237,40.967-33.06z"
   id="path27658" />
      <path
   fill="#C2E0AE"
   d="M29.879-29.032c0,1.175-1.749,1.175-1.749,0C28.13-30.208,29.879-30.208,29.879-29.032z"
   id="path27660" />
      <path
   fill="#C2E0AE"
   d="M30.155-31.765c0,1.174-1.75,1.174-1.75,0C28.405-32.941,30.155-32.941,30.155-31.765z"
   id="path27662" />
      <path
   fill="#C2E0AE"
   d="M27.695-31.055c0,1.176-1.75,1.176-1.75,0C25.945-32.231,27.695-32.231,27.695-31.055z"
   id="path27664" />
      <path
   fill="#C2E0AE"
   d="M32.287-30.835c0,1.174-1.749,1.174-1.749,0C30.538-32.013,32.287-32.013,32.287-30.835z"
   id="path27666" />
      <path
   fill="#D7E8B1"
   d="M28.451-0.552c-0.017-1.212-0.037-2.74-0.042-4.476c0.708-0.102,1.5-0.237,1.972-0.405    c-0.014,1.827-0.014,3.501-0.009,4.88L28.451-0.552z"
   id="path27668" />
      <path
   fill="#D7E8B1"
   d="M35.151-64.66c-1.601,1.755-3.147,3.467-4.276,4.807l-0.035-2.977c0.687-0.731,1.386-1.484,2.092-2.253    L35.151-64.66z"
   id="path27670" />
      <path
   fill="#D7E8B1"
   d="M28.013-57.761c-1.722,2.08-3.242,3.713-4.325,5.191c-0.475,0-0.99-0.136-2.138,0.101    c1.567-2.18,3.847-4.83,6.438-8.015L28.013-57.761z"
   id="path27672" />
      <path
   fill="#D7E8B1"
   d="M30.359-11.475c-0.005,0.547-0.01,0.604-0.017,1.249c-0.505,0.508-1.279,0.91-1.953,1.047    c-0.067-4.585-0.147-8.482-0.701-9.079c-0.767-0.824-0.926-1.615,0.404-1.351c1.35,0.271,1.35,0.404,2.024,0.135    c0.675-0.271,1.891-0.54,1.214,1.081c-0.418,1.005-0.942,0.945-0.942,2.565c0,0.419-0.012,0.925-0.024,2.497    C28.205-12.689,28.771-12.149,30.359-11.475z"
   id="path27674" />
      <path
   fill="#D7E8B1"
   d="M30.38-64.294c-0.031,3.925,0.008,7.153,0.008,8.236c0,3.114-0.042,5.375-3.038,8.843    c-2.362,2.733-5.408,3.495-8.399,4.435l-0.005-1.536c2.409-0.406,7.746-3.19,8.943-6.881c-2.913,1.99-10.856-1.464-11.418,5.143    c0.935-1.193,2.149-2.041,3.111-3.261c0.743-0.37,2.063-0.495,2.4-0.495c-1.506,1.902-3.094,3.227-4.558,5.104    c-0.211,0.407,0.747,0.52,1.521,0.39l0.005,1.536c-1.712,0.536-3.767,1.13-4.75,2.186c-2.06,2.642-4.617,5.021-6.914,7.913    C7.208-33.617,7-33.676,6.859-34.571c2.099-2.652,5.096-5.697,7.078-8.23c1.998-3.225-0.006-6.787,4.218-8.568    c1.546-0.651,5.558-0.69,8.115-0.841c1.622-0.095,2.227-2.363,2.227-4.387c0-0.611-0.076-3.444-0.088-7.29    C29.117-63.989,29.909-64.125,30.38-64.294z"
   id="path27676" />
      <path
   fill="#D7E8B1"
   d="M21.701-0.773c-0.072-1.205-1.339-2.339-3.821-2.153c-0.687,0.051-0.171,0.131,0.271,0.538    c1.338,1.24,0.64,2.093-2.7,1.553L21.701-0.773z"
   id="path27678" />
      <path
   fill="#D7E8B1"
   d="M2.489-3.432C8.622-5.459,23.646-4.977,28.97-5.636c6.325-0.782,7.323-8.876,1.08-7.087    c-0.662,0.189-0.571,0.417,0.2,0.676c1.418,0.471,1.286,3.246-3.441,3.711C20.064-7.67,7.792-8.076,2.088-6.914L2.489-3.432z"
   id="path27680" />
      <path
   fill="#D7E8B1"
   d="M2.288-10.214c5.976-0.811,12.875-0.292,16.692-0.282c8.892,0.028,8.337-7.336,2.024-6.074    c-0.675,0.135-0.541,0.337,0.203,0.674c0.742,0.34,0.635,3.147-4.118,2.431c-4.238-0.638-9.901-0.615-14.81,0.047L2.288-10.214z"
   id="path27682" />
      <path
   fill="#D7E8B1"
   d="M44.441,0c0.863-2.824,3.284-4.862,6.397-6.31c1.017-0.474,2.698-0.788,4.77-1.009l0.005,3.295    C54-3.713,52.668-3.317,51.785-2.8c-1.511,0.879-2.627,1.8-3.418,2.76L44.441,0z"
   id="path27684" />
      <path
   fill="#D7E8B1"
   d="M37.405-0.102c0.165-4.731,2.945-9.202,8.171-11.475c2.453-1.065,6.074-1.773,9.922-2.116l0.108,3.211    c-5.034,0.388-9.827,1.489-12.191,4.306c-1.836,2.188-2.831,4.12-3.194,5.92L37.405-0.102z"
   id="path27686" />
      <path
   fill="#D7E8B1"
   d="M2.659-18.858c4.082-2.794,6.526-7.549,2.551-18.366c-5.804-15.797-2.11-21.862,13.143-19.836    c4.598-0.185,4.49-5.099-0.473-4.727c-0.687,0.052-0.171,0.131,0.271,0.54c1.338,1.24,0.64,2.093-2.7,1.553    c-3.398-0.55-7.549-1.373-12.804,2.286c-7.603,5.292,3.738,21.562,2.295,24.773c-0.707-3.141-2.078-6.097-3.536-8.874    l-0.033,2.378c0.944,2.017,1.688,4.039,2.083,6.09c-0.575-1.418-1.214-2.744-1.888-3.994l-0.024,2.15    c2.854,5.35,3.356,9.9,0.81,13.034L2.659-18.858z"
   id="path27688" />
      <path
   fill="#D7E8B1"
   d="M56.239-55.515c-3.817,2.822-3.756,8.8-0.269,18.29C63.921-15.59,46.185-18.2,41.051-12.279    c-2.609,2.97-7.534,8.151-10.177,11.283l-0.035-2.973c7.804-8.33,17.304-19.433,22.452-26.272c0.168,0.784,0.473,1.513,0.45,2.365    c-0.907,1.53-5.169,6.927-7.741,9.809c14.27-3.219,9.884-15.994-4.342-30.498c-4.586-4.677-5.412-11.015-2.76-15.92l4.516-0.55    c-9.793,11.671,4.32,16.064,10.8,31.994c-1.079-5.58-4.726-10.934-7.965-16.604c-4.614-8.075-1.215-12.826,4.589-15.526    l0.946,3.51c-12.093,7.052,1.121,16.601,3.915,29.026c1.446-3.212-9.896-19.481-2.295-24.773c0.884-0.616,1.738-1.104,2.562-1.489    L56.239-55.515z"
   id="path27690" />
      <path
   fill="#FFF2DB"
   d="M29.308-26.025c-1.423-2.077-5.441-7.161-6.208-8.475c-0.507-0.87-0.547-1.609-1.475-1.038    c-0.596,0.366-0.986,0.3-1.204,0.163c-0.438-0.272-1.204-0.401-0.82,0.985c0.548,1.968,0.766,8.529,0.329,9.84    c1.421,1.859,5.241,5.393,8.528,5.141c0.357-0.027,0.492-0.273,0.546-0.438C29.301-20.733,29.417-24.057,29.308-26.025z"
   id="path27692" />
      <path
   fill="none"
   stroke="#D7E8B1"
   stroke-width="0.6"
   d="M29.308-26.025c-1.423-2.077-5.441-7.161-6.208-8.475    c-0.507-0.87-0.547-1.609-1.475-1.038c-0.596,0.366-0.986,0.3-1.204,0.163c-0.438-0.272-1.204-0.401-0.82,0.985    c0.548,1.968,0.766,8.529,0.329,9.84c1.421,1.859,5.241,5.393,8.528,5.141c0.357-0.027,0.492-0.273,0.546-0.438    C29.301-20.733,29.417-24.057,29.308-26.025z"
   id="path27694" />
      <path
   fill="#FFF2DB"
   d="M29.362-26.025c1.422-2.077,5.439-7.161,6.205-8.475c0.509-0.87,0.549-1.609,1.476-1.038    c0.596,0.366,0.986,0.3,1.203,0.163c0.438-0.272,1.205-0.401,0.821,0.985c-0.547,1.968-0.766,8.529-0.329,9.84    c-1.421,1.859-5.241,5.393-8.529,5.141c-0.354-0.027-0.491-0.273-0.546-0.438C29.366-20.733,29.25-24.057,29.362-26.025z"
   id="path27696" />
      <path
   fill="none"
   stroke="#D7E8B1"
   stroke-width="0.6"
   d="M29.362-26.025c1.422-2.077,5.439-7.161,6.205-8.475    c0.509-0.87,0.549-1.609,1.476-1.038c0.596,0.366,0.986,0.3,1.203,0.163c0.438-0.272,1.205-0.401,0.821,0.985    c-0.547,1.968-0.766,8.529-0.329,9.84c-1.421,1.859-5.241,5.393-8.529,5.141c-0.354-0.027-0.491-0.273-0.546-0.438    C29.366-20.733,29.25-24.057,29.362-26.025z"
   id="path27698" />
      <path
   fill="#FFF2DB"
   d="M30.095-19.422c1.816,0.263,5.354-1.069,8.65-5.139c-0.236-0.711-0.282-2.908-0.198-5.132    c5.007-9.045,8.02-6.785,8.532-4.226c-0.112-0.911,0.254,2.037-0.888,0.512c-0.937-0.875-1.95-0.285-2.588,1.679    c-0.856,2.624-4.725,14.249-13.446,12.77c-0.345-0.378-1.111-0.228-1.736,0c-9.263,1.479-12.071-10.585-13.137-12.569    c-1.21-2.254-1.788-2.754-2.791-1.879c-1.478,1.323-0.91-1.423-1.022-0.512c0.512-2.56,4.18-4.552,8.646,4.493    c0.084,2.223,0.038,4.183-0.198,4.892c2.605,3.175,6.181,5.41,8.57,5.111C29.139-19.503,29.458-19.513,30.095-19.422z"
   id="path27700" />
      <path
   fill="none"
   stroke="#D7E8B1"
   stroke-width="0.6"
   d="M30.095-19.422c1.816,0.263,5.354-1.069,8.65-5.139    c-0.236-0.711-0.282-2.908-0.198-5.132c5.007-9.045,8.02-6.785,8.532-4.226c-0.112-0.911,0.254,2.037-0.888,0.512    c-0.937-0.875-1.95-0.285-2.588,1.679c-0.856,2.624-4.725,14.249-13.446,12.77c-0.345-0.378-1.111-0.228-1.736,0    c-9.263,1.479-12.071-10.585-13.137-12.569c-1.21-2.254-1.788-2.754-2.791-1.879c-1.478,1.323-0.91-1.423-1.022-0.512    c0.512-2.56,4.18-4.552,8.646,4.493c0.084,2.223,0.038,4.183-0.198,4.892c2.605,3.175,6.181,5.41,8.57,5.111    C29.139-19.503,29.458-19.513,30.095-19.422z"
   id="path27702" />
      <path
   fill="none"
   stroke="#D7E8B1"
   stroke-width="0.6"
   d="M20.805-33.187c1.202,1.202,2.187,11.699,6.778,13.558"
   id="path27704" />
      <path
   fill="none"
   stroke="#D7E8B1"
   stroke-width="0.6"
   d="M21.132-34.171c1.75-0.657,1.859,11.152,6.889,14.542"
   id="path27706" />
      <path
   fill="none"
   stroke="#D7E8B1"
   stroke-width="0.6"
   d="M28.405-19.792c-2.297-2.187-4.647-9.349-5.196-12.848"
   id="path27708" />
      <path
   fill="none"
   stroke="#D7E8B1"
   stroke-width="0.6"
   d="M37.863-33.187c-1.203,1.202-2.187,11.699-6.779,13.558"
   id="path27710" />
      <path
   fill="none"
   stroke="#D7E8B1"
   stroke-width="0.6"
   d="M37.535-34.171c-1.75-0.657-1.858,11.152-6.889,14.542"
   id="path27712" />
      <path
   fill="none"
   stroke="#D7E8B1"
   stroke-width="0.6"
   d="M30.263-19.792c2.296-2.187,4.648-9.349,5.194-12.848"
   id="path27714" />
    </g>
  </pattern>
  <pattern
   y="792"
   width="50.76"
   height="58.858"
   patternUnits="userSpaceOnUse"
   id="metroVert"
   viewBox="8.276 -61.255 50.76 58.858"
   overflow="visible">
    <g
   id="g27717">
      <polygon
   fill="none"
   points="8.276,-2.396 8.276,-61.255 59.036,-61.255 59.036,-2.396"
   id="polygon27719" />
      <polygon
   fill="#8AAF83"
   points="59.036,-2.396 59.036,-61.255 8.276,-61.255 8.276,-2.396"
   id="polygon27721" />
      <path
   fill="#C2E0AE"
   d="M24.658-33.381c0,1.176-1.75,1.176-1.75,0S24.658-34.557,24.658-33.381z"
   id="path27723" />
      <path
   fill="#C2E0AE"
   d="M45.924-33.06c0,1.175-1.75,1.175-1.75,0C44.174-34.237,45.924-34.237,45.924-33.06z"
   id="path27725" />
      <path
   fill="#C2E0AE"
   d="M34.836-29.032c0,1.175-1.749,1.175-1.749,0C33.087-30.208,34.836-30.208,34.836-29.032z"
   id="path27727" />
      <path
   fill="#C2E0AE"
   d="M35.111-31.765c0,1.174-1.75,1.174-1.75,0C33.361-32.941,35.111-32.941,35.111-31.765z"
   id="path27729" />
      <path
   fill="#C2E0AE"
   d="M32.65-31.055c0,1.176-1.75,1.176-1.75,0C30.9-32.231,32.65-32.231,32.65-31.055z"
   id="path27731" />
      <path
   fill="#C2E0AE"
   d="M37.242-30.835c0,1.174-1.748,1.174-1.748,0C35.494-32.013,37.242-32.013,37.242-30.835z"
   id="path27733" />
      <path
   fill="#D7E8B1"
   d="M33.407-0.552c-0.017-1.212-0.037-2.74-0.042-4.476c0.708-0.102,1.5-0.237,1.972-0.405    c-0.014,1.827-0.014,3.501-0.009,4.88L33.407-0.552z"
   id="path27735" />
      <path
   fill="#D7E8B1"
   d="M40.107-64.66c-1.601,1.755-3.148,3.467-4.277,4.807l-0.034-2.977c0.687-0.731,1.385-1.484,2.092-2.253    L40.107-64.66z"
   id="path27737" />
      <path
   fill="#D7E8B1"
   d="M32.97-57.761c-1.723,2.08-3.242,3.713-4.325,5.191c-0.475,0-0.99-0.136-2.138,0.101    c1.567-2.18,3.847-4.83,6.438-8.015L32.97-57.761z"
   id="path27739" />
      <path
   fill="#D7E8B1"
   d="M35.315-11.475c-0.006,0.547-0.011,0.604-0.017,1.249c-0.506,0.508-1.279,0.91-1.953,1.047    c-0.067-4.585-0.147-8.482-0.701-9.079c-0.767-0.824-0.927-1.615,0.404-1.351c1.35,0.271,1.35,0.404,2.024,0.135    c0.674-0.271,1.89-0.54,1.214,1.081c-0.418,1.005-0.942,0.945-0.942,2.565c0,0.419-0.012,0.925-0.024,2.497    C33.161-12.689,33.728-12.149,35.315-11.475z"
   id="path27741" />
      <path
   fill="#D7E8B1"
   d="M35.337-64.294c-0.032,3.925,0.008,7.153,0.008,8.236c0,3.114-0.042,5.375-3.038,8.843    c-2.362,2.733-5.408,3.495-8.399,4.435l-0.006-1.536c2.41-0.406,7.747-3.19,8.944-6.881c-2.913,1.99-10.857-1.464-11.418,5.143    c0.935-1.193,2.148-2.041,3.11-3.261c0.744-0.37,2.064-0.495,2.4-0.495c-1.505,1.902-3.093,3.227-4.557,5.104    c-0.211,0.407,0.747,0.52,1.52,0.39l0.006,1.536c-1.712,0.536-3.767,1.13-4.75,2.186c-2.061,2.642-4.617,5.021-6.915,7.913    c-0.077-0.936-0.287-0.994-0.427-1.89c2.098-2.652,5.096-5.697,7.077-8.23c1.999-3.225-0.005-6.787,4.219-8.568    c1.546-0.651,5.557-0.69,8.114-0.841c1.623-0.095,2.228-2.363,2.228-4.387c0-0.611-0.077-3.444-0.088-7.29    C34.073-63.989,34.865-64.125,35.337-64.294z"
   id="path27743" />
      <path
   fill="#D7E8B1"
   d="M26.657-0.773c-0.073-1.205-1.34-2.339-3.821-2.153c-0.687,0.051-0.171,0.131,0.27,0.538    c1.339,1.24,0.641,2.093-2.7,1.553L26.657-0.773z"
   id="path27745" />
      <path
   fill="#D7E8B1"
   d="M7.445-3.432c6.133-2.027,21.157-1.545,26.48-2.204c6.325-0.782,7.324-8.876,1.081-7.087    c-0.662,0.189-0.572,0.417,0.2,0.676c1.418,0.471,1.285,3.246-3.441,3.711C25.021-7.67,12.749-8.076,7.045-6.914L7.445-3.432z"
   id="path27747" />
      <path
   fill="#D7E8B1"
   d="M7.244-10.214c5.976-0.811,12.875-0.292,16.692-0.282c8.892,0.028,8.337-7.336,2.024-6.074    c-0.675,0.135-0.541,0.337,0.202,0.674c0.742,0.34,0.636,3.147-4.117,2.431c-4.238-0.638-9.901-0.615-14.81,0.047L7.244-10.214z"
   id="path27749" />
      <path
   fill="#D7E8B1"
   d="M49.396,0c0.864-2.824,3.284-4.862,6.398-6.31c1.017-0.474,2.697-0.788,4.769-1.009l0.006,3.295    c-1.614,0.311-2.944,0.706-3.828,1.224c-1.512,0.879-2.628,1.8-3.418,2.76L49.396,0z"
   id="path27751" />
      <path
   fill="#D7E8B1"
   d="M42.361-0.102c0.164-4.731,2.944-9.202,8.171-11.475c2.452-1.065,6.073-1.773,9.922-2.116l0.108,3.211    c-5.034,0.388-9.828,1.489-12.191,4.306c-1.837,2.188-2.831,4.12-3.195,5.92L42.361-0.102z"
   id="path27753" />
      <path
   fill="#D7E8B1"
   d="M7.615-18.858c4.081-2.794,6.526-7.549,2.551-18.366C4.362-53.021,8.055-59.087,23.309-57.061    c4.597-0.185,4.49-5.099-0.473-4.727c-0.687,0.052-0.171,0.131,0.27,0.54c1.339,1.24,0.641,2.093-2.7,1.553    c-3.397-0.55-7.548-1.373-12.803,2.286C0-52.116,11.341-35.847,9.896-32.635c-0.706-3.141-2.077-6.097-3.535-8.874l-0.033,2.378    c0.943,2.017,1.688,4.039,2.083,6.09c-0.575-1.418-1.215-2.744-1.888-3.994l-0.024,2.15c2.854,5.35,3.355,9.9,0.81,13.034    L7.615-18.858z"
   id="path27755" />
      <path
   fill="#D7E8B1"
   d="M61.195-55.515c-3.817,2.822-3.757,8.8-0.27,18.29C68.878-15.59,51.142-18.2,46.008-12.279    C43.398-9.31,38.474-4.128,35.83-0.996l-0.034-2.973C43.6-12.299,53.1-23.401,58.247-30.241c0.169,0.784,0.474,1.513,0.451,2.365    c-0.907,1.53-5.169,6.927-7.741,9.809c14.269-3.219,9.884-15.994-4.342-30.498c-4.586-4.677-5.412-11.015-2.761-15.92l4.517-0.55    c-9.793,11.671,4.32,16.064,10.8,31.994c-1.079-5.58-4.726-10.934-7.966-16.604c-4.613-8.075-1.214-12.826,4.59-15.526l0.946,3.51    c-12.093,7.052,1.121,16.601,3.914,29.026c1.447-3.212-9.895-19.481-2.294-24.773c0.884-0.616,1.738-1.104,2.562-1.489    L61.195-55.515z"
   id="path27757" />
      <path
   fill="#FFF2DB"
   d="M34.264-26.025c-1.422-2.077-5.44-7.161-6.207-8.475c-0.507-0.87-0.548-1.609-1.475-1.038    c-0.596,0.366-0.986,0.3-1.204,0.163c-0.438-0.272-1.204-0.401-0.82,0.985c0.547,1.968,0.766,8.529,0.329,9.84    c1.421,1.859,5.241,5.393,8.528,5.141c0.356-0.027,0.492-0.273,0.546-0.438C34.258-20.733,34.372-24.057,34.264-26.025z"
   id="path27759" />
      <path
   fill="none"
   stroke="#D7E8B1"
   stroke-width="0.6"
   d="M34.264-26.025c-1.422-2.077-5.44-7.161-6.207-8.475    c-0.507-0.87-0.548-1.609-1.475-1.038c-0.596,0.366-0.986,0.3-1.204,0.163c-0.438-0.272-1.204-0.401-0.82,0.985    c0.547,1.968,0.766,8.529,0.329,9.84c1.421,1.859,5.241,5.393,8.528,5.141c0.356-0.027,0.492-0.273,0.546-0.438    C34.258-20.733,34.372-24.057,34.264-26.025z"
   id="path27761" />
      <path
   fill="#FFF2DB"
   d="M34.317-26.025c1.423-2.077,5.44-7.161,6.206-8.475c0.509-0.87,0.548-1.609,1.476-1.038    c0.596,0.366,0.985,0.3,1.202,0.163c0.438-0.272,1.206-0.401,0.822,0.985c-0.548,1.968-0.766,8.529-0.329,9.84    c-1.421,1.859-5.241,5.393-8.529,5.141c-0.355-0.027-0.491-0.273-0.546-0.438C34.321-20.733,34.207-24.057,34.317-26.025z"
   id="path27763" />
      <path
   fill="none"
   stroke="#D7E8B1"
   stroke-width="0.6"
   d="M34.317-26.025c1.423-2.077,5.44-7.161,6.206-8.475    c0.509-0.87,0.548-1.609,1.476-1.038c0.596,0.366,0.985,0.3,1.202,0.163c0.438-0.272,1.206-0.401,0.822,0.985    c-0.548,1.968-0.766,8.529-0.329,9.84c-1.421,1.859-5.241,5.393-8.529,5.141c-0.355-0.027-0.491-0.273-0.546-0.438    C34.321-20.733,34.207-24.057,34.317-26.025z"
   id="path27765" />
      <path
   fill="#FFF2DB"
   d="M35.051-19.422c1.816,0.263,5.354-1.069,8.65-5.139c-0.235-0.711-0.281-2.908-0.197-5.132    c5.007-9.045,8.02-6.785,8.532-4.226c-0.112-0.911,0.254,2.037-0.888,0.512c-0.937-0.875-1.95-0.285-2.589,1.679    c-0.855,2.624-4.724,14.249-13.446,12.77c-0.344-0.378-1.11-0.228-1.735,0c-9.263,1.479-12.071-10.585-13.137-12.569    c-1.211-2.254-1.788-2.754-2.791-1.879c-1.479,1.323-0.91-1.423-1.022-0.512c0.511-2.56,4.18-4.552,8.646,4.493    c0.084,2.223,0.038,4.183-0.198,4.892c2.604,3.175,6.18,5.41,8.57,5.111C34.096-19.503,34.415-19.513,35.051-19.422z"
   id="path27767" />
      <path
   fill="none"
   stroke="#D7E8B1"
   stroke-width="0.6"
   d="M35.051-19.422c1.816,0.263,5.354-1.069,8.65-5.139    c-0.235-0.711-0.281-2.908-0.197-5.132c5.007-9.045,8.02-6.785,8.532-4.226c-0.112-0.911,0.254,2.037-0.888,0.512    c-0.937-0.875-1.95-0.285-2.589,1.679c-0.855,2.624-4.724,14.249-13.446,12.77c-0.344-0.378-1.11-0.228-1.735,0    c-9.263,1.479-12.071-10.585-13.137-12.569c-1.211-2.254-1.788-2.754-2.791-1.879c-1.479,1.323-0.91-1.423-1.022-0.512    c0.511-2.56,4.18-4.552,8.646,4.493c0.084,2.223,0.038,4.183-0.198,4.892c2.604,3.175,6.18,5.41,8.57,5.111    C34.096-19.503,34.415-19.513,35.051-19.422z"
   id="path27769" />
      <path
   fill="none"
   stroke="#D7E8B1"
   stroke-width="0.6"
   d="M25.762-33.187c1.201,1.202,2.187,11.699,6.778,13.558"
   id="path27771" />
      <path
   fill="none"
   stroke="#D7E8B1"
   stroke-width="0.6"
   d="M26.088-34.171c1.75-0.657,1.86,11.152,6.89,14.542"
   id="path27773" />
      <path
   fill="none"
   stroke="#D7E8B1"
   stroke-width="0.6"
   d="M33.361-19.792c-2.298-2.187-4.648-9.349-5.196-12.848"
   id="path27775" />
      <path
   fill="none"
   stroke="#D7E8B1"
   stroke-width="0.6"
   d="M42.819-33.187c-1.203,1.202-2.187,11.699-6.779,13.558"
   id="path27777" />
      <path
   fill="none"
   stroke="#D7E8B1"
   stroke-width="0.6"
   d="M42.491-34.171c-1.75-0.657-1.858,11.152-6.889,14.542"
   id="path27779" />
      <path
   fill="none"
   stroke="#D7E8B1"
   stroke-width="0.6"
   d="M35.22-19.792c2.296-2.187,4.647-9.349,5.193-12.848"
   id="path27781" />
    </g>
  </pattern>
  <rect
   style="fill:url(#Water_Lilies_Color);stroke:#000000;stroke-width:0.5"
   id="rect28614"
   height="93.220001"
   width="129.661"
   clip-path="url(#SVGID_2_)"
   y="-44.439999"
   x="641.69397"
   transform="translate(-214.31081,-163.6267)" />
  <g
   inkscape:groupmode="layer"
   id="layer1"
   inkscape:label="RICHTIG"
   style="display:inline"
   transform="translate(-214.31081,-163.6267)">
    <g
   id="g6909">
      
      
      <path
   inkscape:connector-curvature="0"
   id="path3860"
   d="m 283.95757,235.65851 c 0,4.32594 -13.08518,7.83281 -29.22657,7.83281 -16.14139,0 -29.22657,-3.50687 -29.22657,-7.83281 0,-4.32593 13.08518,-7.8328 29.22657,-7.8328 16.14139,0 29.22657,3.50687 29.22657,7.8328 z"
   style="opacity:0.98770501;fill:#af0700;fill-opacity:1;fill-rule:evenodd;stroke:#af3636;stroke-width:0pt;stroke-linecap:butt;stroke-linejoin:miter;stroke-miterlimit:4;stroke-opacity:1" /><path
   inkscape:connector-curvature="0"
   id="path3862"
   d="m 283.95757,235.65851 c 0,4.32594 -13.08518,7.83281 -29.22657,7.83281 -16.14139,0 -29.22657,-3.50687 -29.22657,-7.83281 0,-4.32593 13.08518,-7.8328 29.22657,-7.8328 16.14139,0 29.22657,3.50687 29.22657,7.8328 z"
   style="opacity:0.98770501;fill:url(#linearGradient7145);fill-opacity:1;fill-rule:evenodd;stroke:#af3636;stroke-width:0pt;stroke-linecap:butt;stroke-linejoin:miter;stroke-miterlimit:4;stroke-opacity:1" /><path
   inkscape:connector-curvature="0"
   id="rect3811"
   d="m 214.31081,175.00477 c 0,0 1.20761,22.83078 4.74431,33.81786 2.70109,8.39118 12.35521,23.94539 12.48477,24.1539 0.58315,3.29679 10.74538,5.92165 23.19107,5.92165 12.41975,0 22.55922,-2.61439 23.18095,-5.90151 0.0568,-0.0915 9.78351,-15.75093 12.49488,-24.17404 3.5367,-10.98708 4.74432,-33.81786 4.74432,-33.81786 h -0.0657 c -1.20902,5.69168 -18.81439,10.2078 -40.35446,10.2078 -21.54008,0 -39.14039,-4.51612 -40.34942,-10.2078 z"
   style="opacity:0.98770501;fill:#af0700;fill-opacity:1;fill-rule:evenodd;stroke:#af3636;stroke-width:0pt;stroke-linecap:butt;stroke-linejoin:miter;stroke-miterlimit:4;stroke-opacity:1" /><path
   inkscape:connector-curvature="0"
   id="path3822"
   d="m 254.73096,163.6267 c -22.32344,0 -40.42015,4.84943 -40.42015,10.83218 0,5.98275 18.09671,10.83219 40.42015,10.83219 22.32343,0 40.42015,-4.84944 40.42015,-10.83219 0,-5.98275 -18.09672,-10.83218 -40.42015,-10.83218 z m 0,0.60022 c 21.08702,0 38.18188,4.58058 38.18188,10.23196 0,5.65139 -17.09486,10.236 -38.18188,10.236 -21.08703,0 -38.18189,-4.58461 -38.18189,-10.236 0,-5.65138 17.09486,-10.23196 38.18189,-10.23196 z"
   style="opacity:0.98770501;fill:#af0700;fill-opacity:1;fill-rule:evenodd;stroke:#af3636;stroke-width:0pt;stroke-linecap:butt;stroke-linejoin:miter;stroke-miterlimit:4;stroke-dasharray:none;stroke-opacity:1" /><path
   inkscape:connector-curvature="0"
   id="path3827"
   d="m 292.91279,174.46029 c 0,5.65139 -17.09448,10.23274 -38.18159,10.23274 -21.08712,0 -38.1816,-4.58135 -38.1816,-10.23274 0,-5.65138 17.09448,-10.23273 38.1816,-10.23273 21.08711,0 38.18159,4.58135 38.18159,10.23273 z"
   style="opacity:0.98770501;fill:#af0700;fill-opacity:1;fill-rule:evenodd;stroke:#af3636;stroke-width:0pt;stroke-linecap:butt;stroke-linejoin:miter;stroke-miterlimit:4;stroke-opacity:1" /><path
   style="opacity:0.98770501;fill:url(#radialGradient7147);fill-opacity:1;fill-rule:evenodd;stroke:#af3636;stroke-width:0pt;stroke-linecap:butt;stroke-linejoin:miter;stroke-miterlimit:4;stroke-dasharray:none;stroke-opacity:1"
   d="m 254.73096,163.6267 c -22.32344,0 -40.42015,4.84943 -40.42015,10.83218 0,5.98275 18.09671,10.83219 40.42015,10.83219 22.32343,0 40.42015,-4.84944 40.42015,-10.83219 0,-5.98275 -18.09672,-10.83218 -40.42015,-10.83218 z m 0,0.60022 c 21.08702,0 38.18188,4.58058 38.18188,10.23196 0,5.65139 -17.09486,10.236 -38.18188,10.236 -21.08703,0 -38.18189,-4.58461 -38.18189,-10.236 0,-5.65138 17.09486,-10.23196 38.18189,-10.23196 z"
   id="path3830"
   inkscape:connector-curvature="0" /><path
   inkscape:connector-curvature="0"
   id="path3840"
   d="m 292.91279,174.46029 c 0,5.65139 -17.09448,10.23274 -38.18159,10.23274 -21.08712,0 -38.1816,-4.58135 -38.1816,-10.23274 0,-5.65138 17.09448,-10.23273 38.1816,-10.23273 21.08711,0 38.18159,4.58135 38.18159,10.23273 z"
   style="opacity:0.98770501;fill:url(#linearGradient7149);fill-opacity:1;fill-rule:evenodd;stroke:#af3636;stroke-width:0pt;stroke-linecap:butt;stroke-linejoin:miter;stroke-miterlimit:4;stroke-opacity:1" /><path
   style="opacity:0.98770501;fill:url(#linearGradient7151);fill-opacity:1;fill-rule:evenodd;stroke:#af3636;stroke-width:0pt;stroke-linecap:butt;stroke-linejoin:miter;stroke-miterlimit:4;stroke-opacity:1"
   d="m 214.31081,175.00477 c 0,0 1.20761,22.83078 4.74431,33.81786 2.70109,8.39118 12.35521,23.94539 12.48477,24.1539 0.58315,3.29679 10.74538,5.92165 23.19107,5.92165 12.41975,0 22.55922,-2.61439 23.18095,-5.90151 0.0568,-0.0915 9.78351,-15.75093 12.49488,-24.17404 3.5367,-10.98708 4.74432,-33.81786 4.74432,-33.81786 h -0.0657 c -1.20902,5.69168 -18.81439,10.2078 -40.35446,10.2078 -21.54008,0 -39.14039,-4.51612 -40.34942,-10.2078 z"
   id="path3850"
   inkscape:connector-curvature="0" /><path
   inkscape:connector-curvature="0"
   id="path3814"
   d="m 254.72843,167.11729 c -19.62504,0 -35.75042,4.01366 -37.58569,9.14432 3.17855,4.79139 18.79443,8.43129 37.58569,8.43129 18.79126,0 34.41219,-3.6399 37.59074,-8.43129 -1.83527,-5.13066 -17.9657,-9.14432 -37.59074,-9.14432 z"
   style="opacity:0.98770501;fill:#5f110e;fill-opacity:1;fill-rule:evenodd;stroke:#af3636;stroke-width:0pt;stroke-linecap:butt;stroke-linejoin:miter;stroke-miterlimit:4;stroke-dasharray:none;stroke-opacity:1" />
      
    </g>
  </g>
</svg>