<?xml version="1.0" encoding="UTF-8" standalone="no"?>
<!-- Created with Inkscape (http://www.inkscape.org/) -->

<svg
   xmlns:dc="http://purl.org/dc/elements/1.1/"
   xmlns:cc="http://creativecommons.org/ns#"
   xmlns:rdf="http://www.w3.org/1999/02/22-rdf-syntax-ns#"
   xmlns:svg="http://www.w3.org/2000/svg"
   xmlns="http://www.w3.org/2000/svg"
   xmlns:sodipodi="http://sodipodi.sourceforge.net/DTD/sodipodi-0.dtd"
   xmlns:inkscape="http://www.inkscape.org/namespaces/inkscape"
   id="svg2"
   sodipodi:docname="watering_can.svg"
   viewBox="0 0 262.7816 162.41712"
   sodipodi:version="0.32"
   version="1.0"
   inkscape:output_extension="org.inkscape.output.svg.inkscape"
   inkscape:version="0.92.4 (unknown)"
   width="262.78159"
   height="162.41711">
  <defs
     id="defs161" />
  <sodipodi:namedview
     id="base"
     bordercolor="#666666"
     inkscape:pageshadow="2"
     inkscape:window-y="24"
     pagecolor="#ffffff"
     inkscape:window-height="1056"
     inkscape:zoom="0.98994949"
     inkscape:window-x="65"
     showgrid="false"
     borderopacity="1.0"
     inkscape:current-layer="layer2"
     inkscape:cx="-248.83661"
     inkscape:cy="33.78632"
     inkscape:window-width="1855"
     inkscape:pageopacity="0.0"
     inkscape:document-units="px"
     fit-margin-top="0"
     fit-margin-left="0"
     fit-margin-right="0"
     fit-margin-bottom="0"
     inkscape:window-maximized="1" />
  <g
     id="layer2"
     inkscape:label="dessin"
     inkscape:groupmode="layer"
     transform="translate(-462.06174,-25.610811)">
    <g
       id="g3851"
       inkscape:export-ydpi="82.942017"
       inkscape:export-xdpi="82.942017"
       inkscape:export-filename="C:\Documents and Settings\laurent\Mes documents\dessin 2d\objet\arrosoir1.png"
       transform="translate(346.03,-63.263)">
      <path
         id="path2456"
         sodipodi:nodetypes="ccccccccccc"
         style="fill:none;stroke:#000000;stroke-width:1px"
         d="m 147.45,145.79 0.26,89.65 -1.77,0.76 0.5,5.3 c 31.88,16.41 92.82,7.48 99,0.51 l 0.25,-5.81 h -1.01 l 0.76,-7.32 105.31,-98.75 24.74,-0.25 c 4.51,-14.39 3.18,-27.1 -0.88,-40.848"
         inkscape:connector-curvature="0" />
      <path
         id="path2458"
         sodipodi:nodetypes="ccccsc"
         style="fill:none;stroke:#000000;stroke-width:1px"
         d="m 374.74,89.222 c -21.19,21.838 -44.65,43.228 -69.2,64.398 l -56.82,-3.54 0.76,-11.61 c -35.5,-60.707 -92.94,-53.053 -119.6,-19.58 -20.41,25.64 -19.47,68.7 17.14,95.79"
         inkscape:connector-curvature="0" />
      <path
         id="path2460"
         style="fill:none;stroke:#000000;stroke-width:1px"
         d="m 247.21,157.15 49.75,2.78 -47.73,41.67 h -3.29 z"
         inkscape:connector-curvature="0" />
      <path
         id="path2462"
         sodipodi:nodetypes="cscccccccccsc"
         style="fill:none;stroke:#000000;stroke-width:1px"
         d="M 147.45,210.64 C 137.06,201.5 127.14,189.68 123.79,176.76 106.18,108.75 196.32,62.63 246.2,139.22 v 3.54 c -1.51,-1.32 -3.65,-2.8 -7.83,-4.8 -9.06,-0.97 -18.3,-2.66 -28.04,-6.31 l -23.73,4.8 c -11.02,1 -29.46,0.06 -38.89,6.56 v 3.54 c 15.15,5.63 30.05,5.86 45.2,6.31 l 28.28,-0.76 c 7.64,-0.15 16.25,-0.64 22.9,-5.18 2.49,-1.7 1.83,-3.41 2.36,-3.53"
         inkscape:connector-curvature="0" />
      <path
         id="path2464"
         sodipodi:nodetypes="ccc"
         style="fill:none;stroke:#000000;stroke-width:1px"
         d="m 209.58,131.65 -2.78,8.58 c -3.59,4.56 -7.86,9.53 -14.77,12.76"
         inkscape:connector-curvature="0" />
      <path
         id="path2466"
         sodipodi:nodetypes="cc"
         style="fill:none;stroke:#000000;stroke-width:1px"
         d="m 154.27,172.05 c 29.15,5.49 58.57,5.45 88.39,-2.52"
         inkscape:connector-curvature="0" />
      <path
         id="path2468"
         sodipodi:nodetypes="cc"
         style="fill:none;stroke:#000000;stroke-width:1px"
         d="m 153.51,176.85 c 26.17,5.78 54.66,6.41 86.88,-1.26"
         inkscape:connector-curvature="0" />
      <path
         id="path2470"
         sodipodi:nodetypes="cc"
         style="fill:none;stroke:#000000;stroke-width:1px"
         d="m 152.76,182.66 c 27.99,6.76 56.61,8.68 86.62,0"
         inkscape:connector-curvature="0" />
      <path
         id="path2472"
         sodipodi:nodetypes="cc"
         style="fill:none;stroke:#000000;stroke-width:1px"
         d="m 147.45,236.2 c 18.76,14.82 92.54,7.56 97.23,0"
         inkscape:connector-curvature="0" />
      <path
         id="path2492"
         sodipodi:nodetypes="ccc"
         style="fill:none;stroke:#000000;stroke-width:1px"
         d="m 374.8,89.096 0.32,40.654"
         inkscape:connector-curvature="0" />
      <path
         id="path3308"
         style="fill:#808080;stroke:#000000;stroke-linecap:round;stroke-linejoin:bevel"
         d="m 210.28,131.93 c -2.28,4.21 -3.03,9.6 -7.12,12.79 -2.4,2.82 -5.91,5.19 -8.15,7.68 14.5,-0.87 29.47,0.67 43.61,-3.06 2.54,-1.27 7.91,-2.73 7.17,-6.38 -4.9,-4.94 -12.32,-5.36 -18.82,-6.56 -5.72,-1.04 -11.17,-2.95 -16.69,-4.47 z"
         inkscape:connector-curvature="0" />
      <path
         id="path3310"
         style="fill:#525252;stroke:#000000;stroke-linecap:round;stroke-linejoin:bevel"
         d="m 206.3,132.83 c -12.75,2.71 -25.71,4.28 -38.72,5.17 -6.4,1.18 -14.26,0.78 -19.2,5.5 -1.69,3.66 4.05,4.2 6.29,4.97 12.7,2.88 25.99,4.84 38.95,3.08 6.01,-2.85 11.07,-8.3 13.89,-14.37 0.69,-1.64 2.08,-4.91 -1.21,-4.35 z"
         inkscape:connector-curvature="0" />
      <path
         id="path3312"
         style="fill:#808080;stroke:#000000;stroke-linecap:round;stroke-linejoin:bevel"
         d="m 373.98,90.527 c -16.11,15.343 -31.78,31.143 -48.54,45.853 -6.53,5.91 -13.19,11.65 -19.78,17.47 -19.1,-1.11 -38.17,-2.66 -57.28,-3.37 -0.31,-5.17 2.87,-11.19 -1.4,-15.37 -12.91,-21.08 -34.08,-39.189 -59.6,-41.295 -31.28,-2.733 -62.93,19.575 -69.11,50.595 -5.68,26.05 6.68,54.49 28.44,69.31 2.47,-0.28 -0.16,-3.54 -1.1,-4.29 -12.88,-11.98 -23.7,-27.9 -24.17,-46.11 -1.62,-25.78 14.69,-51.39 39.1,-60 22.81,-8.683 49.77,-1.97 67.39,14.44 6.87,6.78 14.82,13.58 18.4,22.81 1.6,6.16 -6.09,9.17 -10.9,10.17 -18.53,2.52 -37.38,2.28 -56.05,1.66 -10.6,-0.35 -21.39,-2.28 -31.36,-5.13 0.08,29.79 -0.15,59.66 0.11,89.4 19.98,10.16 43.1,7.55 64.71,6.65 9.85,-1.08 20.36,-1.47 29.38,-5.76 4.33,-2.29 0.95,-8.5 5.24,-10.87 34.17,-32.05 68.33,-64.1 102.48,-96.16 8.26,-0.86 16.76,-0.82 24.91,-1.28 -0.23,-12.88 0.54,-25.91 -0.6,-38.701 0.01,0.199 -0.22,-0.135 -0.27,-0.022 z M 272.04,158.29 c 8.36,0.47 16.78,0.9 25.09,1.54 -15.52,13.81 -30.97,27.82 -47.21,40.79 -1.38,1.32 -5.53,2.55 -4.35,-0.85 0.66,-14.27 1.09,-28.54 1.56,-42.81 8.3,0.44 16.61,0.89 24.91,1.33 z m -30.33,11.39 c -19.27,5.77 -39.85,6.5 -59.89,6.09 -8.63,-0.93 -18.97,-1.55 -26.57,-3.64 25.61,3.92 52.1,5.19 77.55,-0.63 2.93,-0.52 6.24,-1.29 8.91,-1.82 z m -2.08,6.05 c -1.11,0.79 -6.07,1.44 -8.48,1.98 -18.49,3.55 -37.5,3.64 -56.25,2.86 -6.76,-1 -14.37,-1.56 -20.52,-3.86 28.02,6.49 57.26,4.65 85.25,-0.98 z m -1.32,7.12 c -3.51,1.48 -9.38,2.47 -13.83,3.4 -15.52,2.44 -31.42,2.18 -47.06,1.15 -7.82,-1.14 -15.66,-2.35 -23.3,-4.35 24.38,4.85 49.75,7.12 74.3,2.02 3.33,-0.59 6.54,-1.77 9.89,-2.22 z"
         inkscape:connector-curvature="0" />
      <path
         id="path3314"
         style="fill:#808080;stroke:#000000;stroke-linecap:round;stroke-linejoin:bevel"
         d="m 146.59,236.69 c -0.88,3.22 0.97,5.96 4.26,6.47 13.92,5.5 29.03,7.54 43.96,6.72 16.14,-0.11 33,-0.24 48.08,-6.56 2.11,-0.85 3.89,-4.7 1.96,-6.28 -15.04,7.16 -32.38,6.8 -48.75,7.31 -15.83,0.17 -32.59,0.9 -46.97,-6.77 -0.81,-0.12 -1.78,-1.34 -2.54,-0.89 z"
         inkscape:connector-curvature="0" />
      <path
         id="path3320"
         style="fill:#808080;stroke:#000000;stroke-linecap:round;stroke-linejoin:bevel"
         d="m 375.12,93.566 c 0.12,11.364 0.14,22.734 0.32,34.104 0.53,0.43 0.5,-0.65 0.65,-0.97 1.24,-4.89 2.01,-9.92 1.87,-14.98 0.09,-5.62 -0.76,-11.22 -2.07,-16.675 -0.22,-0.341 -0.17,-1.993 -0.77,-1.479 z"
         inkscape:connector-curvature="0" />
      <path
         id="path3322"
         sodipodi:nodetypes="cccc"
         style="fill:#525252;fill-rule:evenodd;stroke:#000000;stroke-width:1px"
         d="m 245.69,201.1 c 1.81,1.8 3.32,0.62 4.8,-0.89 l -2.91,25.76 z"
         inkscape:connector-curvature="0" />
      <path
         id="rect3328"
         sodipodi:nodetypes="cccc"
         style="fill:#525252;stroke:#000000;stroke-linecap:round;stroke-linejoin:bevel"
         d="M 374.12,96.173 353.11,110.79 374.54,90.266 Z"
         inkscape:connector-curvature="0" />
    </g>
    <g
       id="g3482"
       style="display:none"
       transform="matrix(1.022,-0.67462,0.23439,0.38854,-98.801,748.78)">
      <ellipse
         id="path3486"
         style="display:inline;fill:#65021e"
         transform="matrix(0.52388,0.85179,-0.85179,0.52388,466.13,0.41121)"
         cx="234.375"
         cy="410.04074"
         rx="1.5178572"
         ry="2.3214285" />
      <ellipse
         id="path3496"
         style="display:inline;fill:#65021e"
         transform="matrix(0.52388,0.85179,-0.85179,0.52388,484.88,-10.482)"
         cx="234.375"
         cy="410.04074"
         rx="1.5178572"
         ry="2.3214285" />
      <ellipse
         id="path3500"
         style="display:inline;fill:#65021e"
         transform="matrix(0.52388,0.85179,-0.85179,0.52388,477.02,-4.2316)"
         cx="234.375"
         cy="410.04074"
         rx="1.5178572"
         ry="2.3214285" />
      <ellipse
         id="path3502"
         style="display:inline;fill:#65021e"
         transform="matrix(0.52388,0.85179,-0.85179,0.52388,475.95,0.58978)"
         cx="234.375"
         cy="410.04074"
         rx="1.5178572"
         ry="2.3214285" />
      <ellipse
         id="path3504"
         style="display:inline;fill:#65021e"
         transform="matrix(0.52388,0.85179,-0.85179,0.52388,467.38,5.2326)"
         cx="234.375"
         cy="410.04074"
         rx="1.5178572"
         ry="2.3214285" />
      <ellipse
         id="path3516"
         style="display:inline;fill:#65021e"
         transform="matrix(0.52388,0.85179,-0.85179,0.52388,459.88,2.1969)"
         cx="234.375"
         cy="410.04074"
         rx="1.5178572"
         ry="2.3214285" />
      <ellipse
         id="path3524"
         style="display:inline;fill:#65021e"
         transform="matrix(0.52388,0.85179,-0.85179,0.52388,457.73,9.3398)"
         cx="234.375"
         cy="410.04074"
         rx="1.5178572"
         ry="2.3214285" />
      <ellipse
         id="path3526"
         style="display:inline;fill:#65021e"
         transform="matrix(0.52388,0.85179,-0.85179,0.52388,453.09,7.3755)"
         cx="234.375"
         cy="410.04074"
         rx="1.5178572"
         ry="2.3214285" />
      <ellipse
         id="path3536"
         style="display:inline;fill:#65021e"
         transform="matrix(0.52388,0.85179,-0.85179,0.52388,448.27,13.983)"
         cx="234.375"
         cy="410.04074"
         rx="1.5178572"
         ry="2.3214285" />
      <ellipse
         id="path3538"
         style="display:inline;fill:#65021e"
         transform="matrix(0.52388,0.85179,-0.85179,0.52388,442.38,11.84)"
         cx="234.375"
         cy="410.04074"
         rx="1.5178572"
         ry="2.3214285" />
      <ellipse
         id="path3546"
         style="display:inline;fill:#65021e"
         transform="matrix(0.52388,0.85179,-0.85179,0.52388,439.16,18)"
         cx="234.375"
         cy="410.04074"
         rx="1.5178572"
         ry="2.3214285" />
      <ellipse
         id="path3556"
         style="display:inline;fill:#65021e"
         transform="matrix(0.52388,0.85179,-0.85179,0.52388,430.06,22.018)"
         cx="234.375"
         cy="410.04074"
         rx="1.5178572"
         ry="2.3214285" />
    </g>
  </g>
  <metadata
     id="metadata158">
    <rdf:RDF>
      <cc:Work>
        <dc:format>image/svg+xml</dc:format>
        <dc:type
           rdf:resource="http://purl.org/dc/dcmitype/StillImage" />
        <cc:license
           rdf:resource="http://creativecommons.org/publicdomain/zero/1.0/" />
        <dc:publisher>
          <cc:Agent
             rdf:about="http://openclipart.org/">
            <dc:title>Openclipart</dc:title>
          </cc:Agent>
        </dc:publisher>
        <dc:title>Watering can</dc:title>
        <dc:date>2008-07-26T11:25:02</dc:date>
        <dc:description />
        <dc:source>https://openclipart.org/detail/18132/watering-can-by-lescinqailes</dc:source>
        <dc:creator>
          <cc:Agent>
            <dc:title>lescinqailes</dc:title>
          </cc:Agent>
        </dc:creator>
        <dc:subject>
          <rdf:Bag>
            <rdf:li>arrosoir</rdf:li>
            <rdf:li>garden</rdf:li>
            <rdf:li>watering can</rdf:li>
          </rdf:Bag>
        </dc:subject>
      </cc:Work>
      <cc:License
         rdf:about="http://creativecommons.org/publicdomain/zero/1.0/">
        <cc:permits
           rdf:resource="http://creativecommons.org/ns#Reproduction" />
        <cc:permits
           rdf:resource="http://creativecommons.org/ns#Distribution" />
        <cc:permits
           rdf:resource="http://creativecommons.org/ns#DerivativeWorks" />
      </cc:License>
    </rdf:RDF>
  </metadata>
</svg>
